<svg width="540" height="540" viewBox="0 0 540 540" fill="none" xmlns="http://www.w3.org/2000/svg">
<g clip-path="url(#clip0_297_594)">
<path fill-rule="evenodd" clip-rule="evenodd" d="M553.75 -14.97L553.604 549.115L-45.9873 548.959L-45.8413 -15.125L553.75 -14.97Z" fill="#F5F5F5"/>
<path d="M253.617 300C253.617 313.379 251.273 324.951 246.586 334.717C241.996 344.385 235.648 352.393 227.543 358.74C219.535 364.99 210.111 369.629 199.271 372.656C188.529 375.586 176.957 377.051 164.555 377.051C159.77 377.051 154.496 376.416 148.734 375.146C143.07 373.877 137.309 372.314 131.449 370.459C125.59 368.506 119.926 366.455 114.457 364.307C109.086 362.061 104.301 359.961 100.102 358.008L106.547 300.586C114.848 305.566 124.027 309.375 134.086 312.012C144.242 314.551 154.203 315.82 163.969 315.82C165.824 315.82 168.07 315.771 170.707 315.674C173.344 315.479 175.834 315.039 178.178 314.355C180.619 313.574 182.67 312.451 184.33 310.986C185.99 309.521 186.82 307.422 186.82 304.688C186.82 302.832 186.234 301.27 185.062 300C183.891 298.633 182.377 297.559 180.521 296.777C178.666 295.898 176.566 295.264 174.223 294.873C171.879 294.385 169.584 294.043 167.338 293.848C165.092 293.652 162.992 293.555 161.039 293.555C159.086 293.555 157.523 293.555 156.352 293.555C147.953 293.555 140.287 292.236 133.354 289.6C126.518 286.963 120.609 283.252 115.629 278.467C110.746 273.584 106.938 267.725 104.203 260.889C101.469 253.955 100.102 246.289 100.102 237.891C100.102 226.367 102.396 216.064 106.986 206.982C111.674 197.803 117.875 190.039 125.59 183.691C133.402 177.246 142.338 172.314 152.396 168.896C162.455 165.479 172.855 163.77 183.598 163.77C188.383 163.77 193.314 163.965 198.393 164.355C203.471 164.648 208.5 165.234 213.48 166.113C218.559 166.992 223.49 168.115 228.275 169.482C233.061 170.85 237.602 172.559 241.898 174.609L236.332 234.082C229.691 231.836 222.709 229.98 215.385 228.516C208.158 226.953 201.078 226.172 194.145 226.172C192.875 226.172 191.215 226.221 189.164 226.318C187.211 226.318 185.111 226.465 182.865 226.758C180.717 226.953 178.52 227.295 176.273 227.783C174.027 228.271 172.025 228.955 170.268 229.834C168.51 230.615 167.094 231.689 166.02 233.057C164.945 234.424 164.457 236.035 164.555 237.891C164.652 240.039 165.434 241.699 166.898 242.871C168.461 244.043 170.414 244.922 172.758 245.508C175.199 245.996 177.836 246.24 180.668 246.24C183.598 246.24 186.479 246.191 189.311 246.094C192.143 245.898 194.779 245.752 197.221 245.654C199.662 245.459 201.664 245.41 203.227 245.508C211.039 245.996 218.07 247.656 224.32 250.488C230.57 253.32 235.844 257.08 240.141 261.768C244.535 266.455 247.855 272.07 250.102 278.613C252.445 285.059 253.617 292.188 253.617 300Z" fill="url(#paint0_linear_297_594)"/>
<path d="M313.461 286.469C313.461 291.547 312.543 295.961 310.707 299.711C308.91 303.461 306.449 306.566 303.324 309.027C300.199 311.488 296.527 313.324 292.309 314.535C288.09 315.746 283.578 316.352 278.773 316.352C276.469 316.352 274.203 316.195 271.977 315.883C269.75 315.531 267.543 315.082 265.355 314.535C263.207 313.949 261.059 313.285 258.91 312.543C256.801 311.801 254.672 311 252.523 310.141L254.75 286.82C256.156 287.602 257.66 288.324 259.262 288.988C260.863 289.652 262.504 290.219 264.184 290.688C265.902 291.156 267.621 291.527 269.34 291.801C271.098 292.074 272.797 292.211 274.438 292.211C275.414 292.211 276.605 292.133 278.012 291.977C279.418 291.781 280.766 291.449 282.055 290.98C283.344 290.473 284.438 289.809 285.336 288.988C286.273 288.129 286.742 287.016 286.742 285.648C286.742 284.359 286.371 283.246 285.629 282.309C284.926 281.371 283.988 280.609 282.816 280.023C281.684 279.398 280.395 278.91 278.949 278.559C277.504 278.207 276.039 277.934 274.555 277.738C273.109 277.543 271.723 277.426 270.395 277.387C269.105 277.348 268.031 277.328 267.172 277.328C265.414 277.328 263.617 277.406 261.781 277.562C259.984 277.719 258.227 278.031 256.508 278.5L258.852 231.156L306.312 229.867L307.602 254.359L278.188 252.719L277.602 263.148C279.359 262.719 281.117 262.406 282.875 262.211C284.633 261.977 286.391 261.859 288.148 261.859C291.703 261.859 295.004 262.445 298.051 263.617C301.137 264.75 303.812 266.391 306.078 268.539C308.383 270.688 310.18 273.285 311.469 276.332C312.797 279.34 313.461 282.719 313.461 286.469ZM373.227 231.508C372.992 235.18 372.777 238.812 372.582 242.406C372.387 246 372.133 249.633 371.82 253.305L346.977 254.594V261.977H368.539L367.367 280.141L346.859 280.727L346.977 315.414L317.328 316L319.203 231.508H373.227ZM446.762 233.852L423.91 273.578L443.363 308.148L418.871 315.766L408.324 291.859L395.902 315.883L370.59 306.742L392.152 272.758L372.465 237.016L399.301 230.57L408.91 254.125L419.105 230.57L446.762 233.852Z" fill="url(#paint1_linear_297_594)"/>
</g>
<defs>
<linearGradient id="paint0_linear_297_594" x1="176" y1="164" x2="176" y2="464" gradientUnits="userSpaceOnUse">
<stop stop-color="#337DFF"/>
<stop offset="1" stop-color="#666666"/>
</linearGradient>
<linearGradient id="paint1_linear_297_594" x1="347.5" y1="232" x2="347.5" y2="352" gradientUnits="userSpaceOnUse">
<stop stop-color="#337DFF"/>
<stop offset="1" stop-color="#666666"/>
</linearGradient>
<clipPath id="clip0_297_594">
<rect width="540" height="540" fill="white"/>
</clipPath>
</defs>
</svg>
